<svg xmlns="http://www.w3.org/2000/svg" xmlns:xlink="http://www.w3.org/1999/xlink" width="18" height="19" version="1.1" viewBox="0 0 18 19"><desc>Created with Sketch.</desc><g id="Symbols" fill="none" fill-rule="evenodd" stroke="none" stroke-width="1"><g id="content/blog-article" transform="translate(-400.000000, -2.000000)"><rect id="Rectangle-2" width="15" height="15" x="401" y="5" stroke="#0C0033" stroke-width="2"/><rect id="Rectangle" width="11" height="10" x="407" y="2" fill="#FFF"/><path id="Combined-Shape" fill="#0C0033" stroke="#0C0033" stroke-linecap="square" d="M414.268745,4.0892291 L409.638258,4.0892291 L409.059918,4.0892291 L409.059918,3 L409.638258,3 L415.42166,3 L416,3 L416,4.0892291 L415.42166,4.0892291 L414.268745,4.0892291 L414.634961,3.68803765 L414.84332,3.45977878 L414.84332,3 L416,3 L416,3.54461455 L416,8.99076002 L416,9.53537457 L414.84332,9.53537457 L414.84332,8.99076002 L414.84332,4.97336657 L406.036224,14.6216031 L405.690816,15 L405,14.2432061 L405.345408,13.8648092 L414.268745,4.0892291 Z"/></g></g></svg>